<?xml version="1.0" encoding="UTF-8" standalone="no"?>
<!DOCTYPE svg PUBLIC "-//W3C//DTD SVG 1.1//EN"
 "http://www.w3.org/Graphics/SVG/1.1/DTD/svg11.dtd">
<!-- Generated by graphviz version 2.42.4 (0)
 -->
<!-- Title: SaloraERD Pages: 1 -->
<svg width="965pt" height="1326pt"
 viewBox="0.00 0.00 965.20 1325.70" xmlns="http://www.w3.org/2000/svg" xmlns:xlink="http://www.w3.org/1999/xlink">
<g id="graph0" class="graph" transform="scale(1 1) rotate(0) translate(21.6 1304.1)">
<title>SaloraERD</title>
<polygon fill="white" stroke="transparent" points="-21.6,21.6 -21.6,-1304.1 943.6,-1304.1 943.6,21.6 -21.6,21.6"/>
<!-- users -->
<g id="node1" class="node">
<title>users</title>
<path fill="#f8fbff" stroke="#2563eb" d="M15.5,-370C15.5,-370 76.5,-370 76.5,-370 82.5,-370 88.5,-376 88.5,-382 88.5,-382 88.5,-421 88.5,-421 88.5,-427 82.5,-433 76.5,-433 76.5,-433 15.5,-433 15.5,-433 9.5,-433 3.5,-427 3.5,-421 3.5,-421 3.5,-382 3.5,-382 3.5,-376 9.5,-370 15.5,-370"/>
<text text-anchor="middle" x="24" y="-399" font-family="Arial" font-size="10.00">users</text>
<polyline fill="none" stroke="#2563eb" points="44.5,-370 44.5,-433 "/>
<text text-anchor="start" x="52.5" y="-421" font-family="Arial" font-size="10.00">id PK</text>
<text text-anchor="start" x="52.5" y="-410" font-family="Arial" font-size="10.00">name</text>
<text text-anchor="start" x="52.5" y="-399" font-family="Arial" font-size="10.00">email</text>
<text text-anchor="start" x="52.5" y="-388" font-family="Arial" font-size="10.00">role</text>
<text text-anchor="start" x="52.5" y="-377" font-family="Arial" font-size="10.00">status</text>
</g>
<!-- venues -->
<g id="node2" class="node">
<title>venues</title>
<path fill="#f8fbff" stroke="#2563eb" d="M203.5,-786C203.5,-786 331.5,-786 331.5,-786 337.5,-786 343.5,-792 343.5,-798 343.5,-798 343.5,-859 343.5,-859 343.5,-865 337.5,-871 331.5,-871 331.5,-871 203.5,-871 203.5,-871 197.5,-871 191.5,-865 191.5,-859 191.5,-859 191.5,-798 191.5,-798 191.5,-792 197.5,-786 203.5,-786"/>
<text text-anchor="middle" x="215.5" y="-826" font-family="Arial" font-size="10.00">venues</text>
<polyline fill="none" stroke="#2563eb" points="239.5,-786 239.5,-871 "/>
<text text-anchor="start" x="247.5" y="-859" font-family="Arial" font-size="10.00">id PK</text>
<text text-anchor="start" x="247.5" y="-848" font-family="Arial" font-size="10.00">owner_id FK</text>
<text text-anchor="start" x="247.5" y="-837" font-family="Arial" font-size="10.00">name_en/name_ar</text>
<text text-anchor="start" x="247.5" y="-826" font-family="Arial" font-size="10.00">city/address</text>
<text text-anchor="start" x="247.5" y="-815" font-family="Arial" font-size="10.00">capacity</text>
<text text-anchor="start" x="247.5" y="-804" font-family="Arial" font-size="10.00">price_usd/price_syp</text>
<text text-anchor="start" x="247.5" y="-793" font-family="Arial" font-size="10.00">status</text>
</g>
<!-- users&#45;&gt;venues -->
<g id="edge1" class="edge">
<title>users&#45;&gt;venues</title>
<path fill="none" stroke="#334155" d="M81.83,-433.24C85.82,-438.31 89.39,-443.79 92,-449.5 143.3,-561.67 58.67,-619.06 121,-725.5 136.2,-751.46 160.84,-772.56 185.55,-788.74"/>
<polygon fill="#334155" stroke="#334155" points="184.27,-790.83 191.49,-792.54 186.91,-786.7 184.27,-790.83"/>
<text text-anchor="middle" x="138" y="-764.3" font-family="Arial" font-size="9.00">owner</text>
</g>
<!-- services -->
<g id="node6" class="node">
<title>services</title>
<path fill="#f8fbff" stroke="#2563eb" d="M201,-1097C201,-1097 334,-1097 334,-1097 340,-1097 346,-1103 346,-1109 346,-1109 346,-1148 346,-1148 346,-1154 340,-1160 334,-1160 334,-1160 201,-1160 201,-1160 195,-1160 189,-1154 189,-1148 189,-1148 189,-1109 189,-1109 189,-1103 195,-1097 201,-1097"/>
<text text-anchor="middle" x="215.5" y="-1126" font-family="Arial" font-size="10.00">services</text>
<polyline fill="none" stroke="#2563eb" points="242,-1097 242,-1160 "/>
<text text-anchor="start" x="250" y="-1148" font-family="Arial" font-size="10.00">id PK</text>
<text text-anchor="start" x="250" y="-1137" font-family="Arial" font-size="10.00">name_en/name_ar</text>
<text text-anchor="start" x="250" y="-1126" font-family="Arial" font-size="10.00">type</text>
<text text-anchor="start" x="250" y="-1115" font-family="Arial" font-size="10.00">price_usd/price_syp</text>
<text text-anchor="start" x="250" y="-1104" font-family="Arial" font-size="10.00">provider_id FK</text>
</g>
<!-- users&#45;&gt;services -->
<g id="edge5" class="edge">
<title>users&#45;&gt;services</title>
<path fill="none" stroke="#334155" d="M81.92,-433.2C85.9,-438.28 89.44,-443.76 92,-449.5 152.09,-583.91 85.81,-636.53 121,-779.5 150.12,-897.82 213.51,-1028.05 246.16,-1090.7"/>
<polygon fill="#334155" stroke="#334155" points="244,-1091.85 249.41,-1096.92 248.34,-1089.58 244,-1091.85"/>
<text text-anchor="middle" x="138" y="-880.3" font-family="Arial" font-size="9.00">provider</text>
</g>
<!-- bookings -->
<g id="node8" class="node">
<title>bookings</title>
<path fill="#f8fbff" stroke="#2563eb" d="M508,-622C508,-622 639,-622 639,-622 645,-622 651,-628 651,-634 651,-634 651,-717 651,-717 651,-723 645,-729 639,-729 639,-729 508,-729 508,-729 502,-729 496,-723 496,-717 496,-717 496,-634 496,-634 496,-628 502,-622 508,-622"/>
<text text-anchor="middle" x="524" y="-673" font-family="Arial" font-size="10.00">bookings</text>
<polyline fill="none" stroke="#2563eb" points="552,-622 552,-729 "/>
<text text-anchor="start" x="560" y="-717" font-family="Arial" font-size="10.00">id PK</text>
<text text-anchor="start" x="560" y="-706" font-family="Arial" font-size="10.00">booking_number</text>
<text text-anchor="start" x="560" y="-695" font-family="Arial" font-size="10.00">customer_id FK</text>
<text text-anchor="start" x="560" y="-684" font-family="Arial" font-size="10.00">venue_id FK</text>
<text text-anchor="start" x="560" y="-673" font-family="Arial" font-size="10.00">owner_id FK</text>
<text text-anchor="start" x="560" y="-662" font-family="Arial" font-size="10.00">event_type_id FK</text>
<text text-anchor="start" x="560" y="-651" font-family="Arial" font-size="10.00">total_usd/total_syp</text>
<text text-anchor="start" x="560" y="-640" font-family="Arial" font-size="10.00">booking_status</text>
<text text-anchor="start" x="560" y="-629" font-family="Arial" font-size="10.00">payment_status</text>
</g>
<!-- users&#45;&gt;bookings -->
<g id="edge8" class="edge">
<title>users&#45;&gt;bookings</title>
<path fill="none" stroke="#334155" d="M81.41,-433.06C85.52,-438.19 89.23,-443.73 92,-449.5 131.28,-531.25 54.06,-590.3 121,-651.5 220.1,-742.11 388.37,-722.34 489.11,-699.25"/>
<polygon fill="#334155" stroke="#334155" points="489.69,-701.63 495.95,-697.65 488.58,-696.86 489.69,-701.63"/>
<text text-anchor="middle" x="267.5" y="-721.3" font-family="Arial" font-size="9.00">customer</text>
</g>
<!-- users&#45;&gt;bookings -->
<g id="edge9" class="edge">
<title>users&#45;&gt;bookings</title>
<path fill="none" stroke="#334155" d="M77.87,-433.24C82.72,-438.56 87.58,-444.11 92,-449.5 136.63,-503.98 125.8,-538.86 184,-578.5 275.98,-641.15 404.84,-663.38 488.49,-671.24"/>
<polygon fill="#334155" stroke="#334155" points="488.5,-673.7 495.69,-671.89 488.94,-668.82 488.5,-673.7"/>
<text text-anchor="middle" x="267.5" y="-650.3" font-family="Arial" font-size="9.00">owner</text>
</g>
<!-- payment_proofs -->
<g id="node10" class="node">
<title>payment_proofs</title>
<path fill="#f8fbff" stroke="#2563eb" d="M752.5,-318.5C752.5,-318.5 900.5,-318.5 900.5,-318.5 906.5,-318.5 912.5,-324.5 912.5,-330.5 912.5,-330.5 912.5,-380.5 912.5,-380.5 912.5,-386.5 906.5,-392.5 900.5,-392.5 900.5,-392.5 752.5,-392.5 752.5,-392.5 746.5,-392.5 740.5,-386.5 740.5,-380.5 740.5,-380.5 740.5,-330.5 740.5,-330.5 740.5,-324.5 746.5,-318.5 752.5,-318.5"/>
<text text-anchor="middle" x="783.5" y="-353" font-family="Arial" font-size="10.00">payment_proofs</text>
<polyline fill="none" stroke="#2563eb" points="826.5,-318.5 826.5,-392.5 "/>
<text text-anchor="start" x="834.5" y="-380.5" font-family="Arial" font-size="10.00">id PK</text>
<text text-anchor="start" x="834.5" y="-369.5" font-family="Arial" font-size="10.00">booking_id FK</text>
<text text-anchor="start" x="834.5" y="-358.5" font-family="Arial" font-size="10.00">customer_id FK</text>
<text text-anchor="start" x="834.5" y="-347.5" font-family="Arial" font-size="10.00">image_url</text>
<text text-anchor="start" x="834.5" y="-336.5" font-family="Arial" font-size="10.00">status</text>
<text text-anchor="start" x="834.5" y="-325.5" font-family="Arial" font-size="10.00">admin_id FK</text>
</g>
<!-- users&#45;&gt;payment_proofs -->
<g id="edge15" class="edge">
<title>users&#45;&gt;payment_proofs</title>
<path fill="none" stroke="#334155" d="M88.8,-385.52C99.19,-382.07 110.39,-378.77 121,-376.5 336.4,-330.36 597.25,-338.73 733.1,-347.76"/>
<polygon fill="#334155" stroke="#334155" points="733.13,-350.22 740.27,-348.25 733.46,-345.33 733.13,-350.22"/>
<text text-anchor="middle" x="413" y="-346.3" font-family="Arial" font-size="9.00">customer/admin</text>
</g>
<!-- offers -->
<g id="node11" class="node">
<title>offers</title>
<path fill="#f8fbff" stroke="#2563eb" d="M525,-201C525,-201 622,-201 622,-201 628,-201 634,-207 634,-213 634,-213 634,-274 634,-274 634,-280 628,-286 622,-286 622,-286 525,-286 525,-286 519,-286 513,-280 513,-274 513,-274 513,-213 513,-213 513,-207 519,-201 525,-201"/>
<text text-anchor="middle" x="533.5" y="-241" font-family="Arial" font-size="10.00">offers</text>
<polyline fill="none" stroke="#2563eb" points="554,-201 554,-286 "/>
<text text-anchor="start" x="562" y="-274" font-family="Arial" font-size="10.00">id PK</text>
<text text-anchor="start" x="562" y="-263" font-family="Arial" font-size="10.00">created_by FK</text>
<text text-anchor="start" x="562" y="-252" font-family="Arial" font-size="10.00">scope</text>
<text text-anchor="start" x="562" y="-241" font-family="Arial" font-size="10.00">venue_id FK</text>
<text text-anchor="start" x="562" y="-230" font-family="Arial" font-size="10.00">owner_id FK</text>
<text text-anchor="start" x="562" y="-219" font-family="Arial" font-size="10.00">discount</text>
<text text-anchor="start" x="562" y="-208" font-family="Arial" font-size="10.00">status</text>
</g>
<!-- users&#45;&gt;offers -->
<g id="edge16" class="edge">
<title>users&#45;&gt;offers</title>
<path fill="none" stroke="#334155" d="M64.44,-369.82C77.33,-349.51 96.83,-324.43 121,-310.5 242.96,-240.23 413.03,-235.22 505.75,-238.73"/>
<polygon fill="#334155" stroke="#334155" points="505.74,-241.19 512.83,-239.03 505.94,-236.29 505.74,-241.19"/>
<text text-anchor="middle" x="267.5" y="-281.3" font-family="Arial" font-size="9.00">creator</text>
</g>
<!-- users&#45;&gt;offers -->
<g id="edge18" class="edge">
<title>users&#45;&gt;offers</title>
<path fill="none" stroke="#334155" d="M59.61,-369.64C78.83,-326.35 120.11,-251.36 184,-225.5 290.17,-182.52 426.21,-204.4 505.93,-224.06"/>
<polygon fill="#334155" stroke="#334155" points="505.6,-226.51 512.99,-225.83 506.8,-221.75 505.6,-226.51"/>
<text text-anchor="middle" x="267.5" y="-228.3" font-family="Arial" font-size="9.00">owner</text>
</g>
<!-- reviews -->
<g id="node12" class="node">
<title>reviews</title>
<path fill="#f8fbff" stroke="#2563eb" d="M770.5,-1067C770.5,-1067 882.5,-1067 882.5,-1067 888.5,-1067 894.5,-1073 894.5,-1079 894.5,-1079 894.5,-1140 894.5,-1140 894.5,-1146 888.5,-1152 882.5,-1152 882.5,-1152 770.5,-1152 770.5,-1152 764.5,-1152 758.5,-1146 758.5,-1140 758.5,-1140 758.5,-1079 758.5,-1079 758.5,-1073 764.5,-1067 770.5,-1067"/>
<text text-anchor="middle" x="783.5" y="-1107" font-family="Arial" font-size="10.00">reviews</text>
<polyline fill="none" stroke="#2563eb" points="808.5,-1067 808.5,-1152 "/>
<text text-anchor="start" x="816.5" y="-1140" font-family="Arial" font-size="10.00">id PK</text>
<text text-anchor="start" x="816.5" y="-1129" font-family="Arial" font-size="10.00">customer_id FK</text>
<text text-anchor="start" x="816.5" y="-1118" font-family="Arial" font-size="10.00">venue_id FK</text>
<text text-anchor="start" x="816.5" y="-1107" font-family="Arial" font-size="10.00">service_id FK</text>
<text text-anchor="start" x="816.5" y="-1096" font-family="Arial" font-size="10.00">booking_id FK</text>
<text text-anchor="start" x="816.5" y="-1085" font-family="Arial" font-size="10.00">rating</text>
<text text-anchor="start" x="816.5" y="-1074" font-family="Arial" font-size="10.00">status</text>
</g>
<!-- users&#45;&gt;reviews -->
<g id="edge19" class="edge">
<title>users&#45;&gt;reviews</title>
<path fill="none" stroke="#334155" d="M82.04,-433.14C86,-438.23 89.5,-443.74 92,-449.5 156.77,-598.91 65.52,-1064.78 184,-1176.5 342.38,-1325.85 460.81,-1271.3 672,-1218.5 712.28,-1208.43 750.38,-1181.51 778.55,-1156.95"/>
<polygon fill="#334155" stroke="#334155" points="780.43,-1158.55 784.05,-1152.08 777.18,-1154.89 780.43,-1158.55"/>
<text text-anchor="middle" x="413" y="-1275.3" font-family="Arial" font-size="9.00">customer</text>
</g>
<!-- complaints -->
<g id="node13" class="node">
<title>complaints</title>
<path fill="#f8fbff" stroke="#2563eb" d="M763.5,-638.5C763.5,-638.5 889.5,-638.5 889.5,-638.5 895.5,-638.5 901.5,-644.5 901.5,-650.5 901.5,-650.5 901.5,-700.5 901.5,-700.5 901.5,-706.5 895.5,-712.5 889.5,-712.5 889.5,-712.5 763.5,-712.5 763.5,-712.5 757.5,-712.5 751.5,-706.5 751.5,-700.5 751.5,-700.5 751.5,-650.5 751.5,-650.5 751.5,-644.5 757.5,-638.5 763.5,-638.5"/>
<text text-anchor="middle" x="783.5" y="-673" font-family="Arial" font-size="10.00">complaints</text>
<polyline fill="none" stroke="#2563eb" points="815.5,-638.5 815.5,-712.5 "/>
<text text-anchor="start" x="823.5" y="-700.5" font-family="Arial" font-size="10.00">id PK</text>
<text text-anchor="start" x="823.5" y="-689.5" font-family="Arial" font-size="10.00">customer_id FK</text>
<text text-anchor="start" x="823.5" y="-678.5" font-family="Arial" font-size="10.00">booking_id FK</text>
<text text-anchor="start" x="823.5" y="-667.5" font-family="Arial" font-size="10.00">venue_id FK</text>
<text text-anchor="start" x="823.5" y="-656.5" font-family="Arial" font-size="10.00">owner_id FK</text>
<text text-anchor="start" x="823.5" y="-645.5" font-family="Arial" font-size="10.00">status</text>
</g>
<!-- users&#45;&gt;complaints -->
<g id="edge23" class="edge">
<title>users&#45;&gt;complaints</title>
<path fill="none" stroke="#334155" d="M88.53,-398.95C211.75,-392.13 572.85,-377.67 672,-435.5 746.72,-479.08 790.99,-575.13 811.54,-631.62"/>
<polygon fill="#334155" stroke="#334155" points="809.27,-632.53 813.93,-638.3 813.88,-630.89 809.27,-632.53"/>
<text text-anchor="middle" x="413" y="-397.3" font-family="Arial" font-size="9.00">customer/owner</text>
</g>
<!-- notifications -->
<g id="node16" class="node">
<title>notifications</title>
<path fill="#f8fbff" stroke="#2563eb" d="M213,-85.5C213,-85.5 322,-85.5 322,-85.5 328,-85.5 334,-91.5 334,-97.5 334,-97.5 334,-125.5 334,-125.5 334,-131.5 328,-137.5 322,-137.5 322,-137.5 213,-137.5 213,-137.5 207,-137.5 201,-131.5 201,-125.5 201,-125.5 201,-97.5 201,-97.5 201,-91.5 207,-85.5 213,-85.5"/>
<text text-anchor="middle" x="235.5" y="-109" font-family="Arial" font-size="10.00">notifications</text>
<polyline fill="none" stroke="#2563eb" points="270,-85.5 270,-137.5 "/>
<text text-anchor="start" x="278" y="-125.5" font-family="Arial" font-size="10.00">id PK</text>
<text text-anchor="start" x="278" y="-114.5" font-family="Arial" font-size="10.00">user_id FK</text>
<text text-anchor="start" x="278" y="-103.5" font-family="Arial" font-size="10.00">title</text>
<text text-anchor="start" x="278" y="-92.5" font-family="Arial" font-size="10.00">is_read</text>
</g>
<!-- users&#45;&gt;notifications -->
<g id="edge28" class="edge">
<title>users&#45;&gt;notifications</title>
<path fill="none" stroke="#334155" d="M49.53,-369.68C54.89,-322.28 71.32,-232.79 121,-177.5 140.31,-156.01 168,-141.08 194.05,-130.93"/>
<polygon fill="#334155" stroke="#334155" points="194.94,-133.21 200.63,-128.45 193.22,-128.62 194.94,-133.21"/>
</g>
<!-- activity_logs -->
<g id="node18" class="node">
<title>activity_logs</title>
<path fill="#f8fbff" stroke="#2563eb" d="M212,-0.5C212,-0.5 323,-0.5 323,-0.5 329,-0.5 335,-6.5 335,-12.5 335,-12.5 335,-40.5 335,-40.5 335,-46.5 329,-52.5 323,-52.5 323,-52.5 212,-52.5 212,-52.5 206,-52.5 200,-46.5 200,-40.5 200,-40.5 200,-12.5 200,-12.5 200,-6.5 206,-0.5 212,-0.5"/>
<text text-anchor="middle" x="235.5" y="-24" font-family="Arial" font-size="10.00">activity_logs</text>
<polyline fill="none" stroke="#2563eb" points="271,-0.5 271,-52.5 "/>
<text text-anchor="start" x="279" y="-40.5" font-family="Arial" font-size="10.00">id PK</text>
<text text-anchor="start" x="279" y="-29.5" font-family="Arial" font-size="10.00">user_id FK</text>
<text text-anchor="start" x="279" y="-18.5" font-family="Arial" font-size="10.00">action</text>
<text text-anchor="start" x="279" y="-7.5" font-family="Arial" font-size="10.00">target</text>
</g>
<!-- users&#45;&gt;activity_logs -->
<g id="edge29" class="edge">
<title>users&#45;&gt;activity_logs</title>
<path fill="none" stroke="#334155" d="M51.47,-369.82C59.6,-319.12 79.89,-217.71 121,-141.5 141.34,-103.78 150.27,-94.94 184,-68.5 189.5,-64.19 195.52,-60.13 201.71,-56.36"/>
<polygon fill="#334155" stroke="#334155" points="203.16,-58.35 207.95,-52.69 200.68,-54.12 203.16,-58.35"/>
</g>
<!-- venue_images -->
<g id="node3" class="node">
<title>venue_images</title>
<path fill="#f8fbff" stroke="#2563eb" d="M510,-898.5C510,-898.5 637,-898.5 637,-898.5 643,-898.5 649,-904.5 649,-910.5 649,-910.5 649,-938.5 649,-938.5 649,-944.5 643,-950.5 637,-950.5 637,-950.5 510,-950.5 510,-950.5 504,-950.5 498,-944.5 498,-938.5 498,-938.5 498,-910.5 498,-910.5 498,-904.5 504,-898.5 510,-898.5"/>
<text text-anchor="middle" x="538" y="-922" font-family="Arial" font-size="10.00">venue_images</text>
<polyline fill="none" stroke="#2563eb" points="578,-898.5 578,-950.5 "/>
<text text-anchor="start" x="586" y="-938.5" font-family="Arial" font-size="10.00">id PK</text>
<text text-anchor="start" x="586" y="-927.5" font-family="Arial" font-size="10.00">venue_id FK</text>
<text text-anchor="start" x="586" y="-916.5" font-family="Arial" font-size="10.00">image_url</text>
<text text-anchor="start" x="586" y="-905.5" font-family="Arial" font-size="10.00">is_main</text>
</g>
<!-- venues&#45;&gt;venue_images -->
<g id="edge2" class="edge">
<title>venues&#45;&gt;venue_images</title>
<path fill="none" stroke="#334155" d="M343.6,-860.29C355.68,-864.97 368.12,-869.54 380,-873.5 415.98,-885.48 456.47,-896.55 491,-905.3"/>
<polygon fill="#334155" stroke="#334155" points="490.43,-907.68 497.82,-907.02 491.63,-902.93 490.43,-907.68"/>
</g>
<!-- venue_event_types -->
<g id="node5" class="node">
<title>venue_event_types</title>
<path fill="#f8fbff" stroke="#2563eb" d="M488.5,-762.5C488.5,-762.5 658.5,-762.5 658.5,-762.5 664.5,-762.5 670.5,-768.5 670.5,-774.5 670.5,-774.5 670.5,-786.5 670.5,-786.5 670.5,-792.5 664.5,-798.5 658.5,-798.5 658.5,-798.5 488.5,-798.5 488.5,-798.5 482.5,-798.5 476.5,-792.5 476.5,-786.5 476.5,-786.5 476.5,-774.5 476.5,-774.5 476.5,-768.5 482.5,-762.5 488.5,-762.5"/>
<text text-anchor="middle" x="527" y="-778" font-family="Arial" font-size="10.00">venue_event_types</text>
<polyline fill="none" stroke="#2563eb" points="577.5,-762.5 577.5,-798.5 "/>
<text text-anchor="start" x="585.5" y="-783.5" font-family="Arial" font-size="10.00">venue_id FK</text>
<text text-anchor="start" x="585.5" y="-772.5" font-family="Arial" font-size="10.00">event_type_id FK</text>
</g>
<!-- venues&#45;&gt;venue_event_types -->
<g id="edge3" class="edge">
<title>venues&#45;&gt;venue_event_types</title>
<path fill="none" stroke="#334155" d="M343.65,-816.63C381.54,-810.65 428.09,-803.3 469.28,-796.8"/>
<polygon fill="#334155" stroke="#334155" points="469.85,-799.19 476.38,-795.68 469.08,-794.35 469.85,-799.19"/>
</g>
<!-- venue_services -->
<g id="node7" class="node">
<title>venue_services</title>
<path fill="#f8fbff" stroke="#2563eb" d="M504.5,-1050.5C504.5,-1050.5 642.5,-1050.5 642.5,-1050.5 648.5,-1050.5 654.5,-1056.5 654.5,-1062.5 654.5,-1062.5 654.5,-1090.5 654.5,-1090.5 654.5,-1096.5 648.5,-1102.5 642.5,-1102.5 642.5,-1102.5 504.5,-1102.5 504.5,-1102.5 498.5,-1102.5 492.5,-1096.5 492.5,-1090.5 492.5,-1090.5 492.5,-1062.5 492.5,-1062.5 492.5,-1056.5 498.5,-1050.5 504.5,-1050.5"/>
<text text-anchor="middle" x="535" y="-1074" font-family="Arial" font-size="10.00">venue_services</text>
<polyline fill="none" stroke="#2563eb" points="577.5,-1050.5 577.5,-1102.5 "/>
<text text-anchor="start" x="585.5" y="-1090.5" font-family="Arial" font-size="10.00">venue_id FK</text>
<text text-anchor="start" x="585.5" y="-1079.5" font-family="Arial" font-size="10.00">service_id FK</text>
<text text-anchor="start" x="585.5" y="-1068.5" font-family="Arial" font-size="10.00">custom_price</text>
<text text-anchor="start" x="585.5" y="-1057.5" font-family="Arial" font-size="10.00">is_available</text>
</g>
<!-- venues&#45;&gt;venue_services -->
<g id="edge6" class="edge">
<title>venues&#45;&gt;venue_services</title>
<path fill="none" stroke="#334155" d="M281.58,-871.28C297.57,-916.35 328.98,-986.12 380,-1025.5 410.02,-1048.67 449.65,-1061.35 485.15,-1068.27"/>
<polygon fill="#334155" stroke="#334155" points="484.86,-1070.71 492.19,-1069.58 485.76,-1065.89 484.86,-1070.71"/>
</g>
<!-- venues&#45;&gt;bookings -->
<g id="edge10" class="edge">
<title>venues&#45;&gt;bookings</title>
<path fill="none" stroke="#334155" d="M343.65,-790.68C387.9,-768.41 443.94,-740.2 489.49,-717.28"/>
<polygon fill="#334155" stroke="#334155" points="490.69,-719.42 495.84,-714.08 488.49,-715.04 490.69,-719.42"/>
</g>
<!-- venues&#45;&gt;offers -->
<g id="edge17" class="edge">
<title>venues&#45;&gt;offers</title>
<path fill="none" stroke="#334155" d="M304.04,-785.95C319.58,-766.17 337.34,-741.9 351,-718.5 420.21,-599.9 416.33,-559.66 475,-435.5 498.18,-386.45 526.4,-331.32 546.51,-292.76"/>
<polygon fill="#334155" stroke="#334155" points="548.85,-293.58 549.92,-286.24 544.5,-291.31 548.85,-293.58"/>
</g>
<!-- venues&#45;&gt;reviews -->
<g id="edge20" class="edge">
<title>venues&#45;&gt;reviews</title>
<path fill="none" stroke="#334155" d="M327.41,-871.11C344.27,-883.07 362.75,-895.95 380,-907.5 421.5,-935.28 429.94,-945.98 475,-967.5 558.45,-1007.36 586.5,-999.24 672,-1034.5 698.54,-1045.45 726.96,-1058.84 752.04,-1071.26"/>
<polygon fill="#334155" stroke="#334155" points="750.98,-1073.47 758.34,-1074.39 753.16,-1069.08 750.98,-1073.47"/>
</g>
<!-- venues&#45;&gt;complaints -->
<g id="edge24" class="edge">
<title>venues&#45;&gt;complaints</title>
<path fill="none" stroke="#334155" d="M343.63,-841.51C427.29,-852.56 564.83,-860.34 672,-815.5 721.23,-794.91 764.82,-751.36 792.85,-718.27"/>
<polygon fill="#334155" stroke="#334155" points="794.95,-719.58 797.56,-712.63 791.19,-716.43 794.95,-719.58"/>
</g>
<!-- event_types -->
<g id="node4" class="node">
<title>event_types</title>
<path fill="#f8fbff" stroke="#2563eb" d="M196,-509.5C196,-509.5 339,-509.5 339,-509.5 345,-509.5 351,-515.5 351,-521.5 351,-521.5 351,-549.5 351,-549.5 351,-555.5 345,-561.5 339,-561.5 339,-561.5 196,-561.5 196,-561.5 190,-561.5 184,-555.5 184,-549.5 184,-549.5 184,-521.5 184,-521.5 184,-515.5 190,-509.5 196,-509.5"/>
<text text-anchor="middle" x="219" y="-533" font-family="Arial" font-size="10.00">event_types</text>
<polyline fill="none" stroke="#2563eb" points="254,-509.5 254,-561.5 "/>
<text text-anchor="start" x="262" y="-549.5" font-family="Arial" font-size="10.00">id PK</text>
<text text-anchor="start" x="262" y="-538.5" font-family="Arial" font-size="10.00">name_en/name_ar</text>
<text text-anchor="start" x="262" y="-527.5" font-family="Arial" font-size="10.00">emoji</text>
<text text-anchor="start" x="262" y="-516.5" font-family="Arial" font-size="10.00">is_active</text>
</g>
<!-- event_types&#45;&gt;venue_event_types -->
<g id="edge4" class="edge">
<title>event_types&#45;&gt;venue_event_types</title>
<path fill="none" stroke="#334155" d="M317.79,-561.76C329.3,-569 341.08,-577.39 351,-586.5 366.91,-601.11 366.85,-608.36 380,-625.5 421.41,-679.47 419.75,-705.82 475,-745.5 482.51,-750.89 490.93,-755.53 499.6,-759.5"/>
<polygon fill="#334155" stroke="#334155" points="498.87,-761.85 506.27,-762.41 500.83,-757.36 498.87,-761.85"/>
</g>
<!-- event_types&#45;&gt;bookings -->
<g id="edge11" class="edge">
<title>event_types&#45;&gt;bookings</title>
<path fill="none" stroke="#334155" d="M326.99,-561.52C361.66,-577.03 406.42,-597.2 446,-615.5 459.97,-621.96 474.76,-628.89 489.12,-635.67"/>
<polygon fill="#334155" stroke="#334155" points="488.31,-638 495.68,-638.77 490.4,-633.57 488.31,-638"/>
</g>
<!-- todo_templates -->
<g id="node14" class="node">
<title>todo_templates</title>
<path fill="#f8fbff" stroke="#2563eb" d="M497.5,-451.5C497.5,-451.5 649.5,-451.5 649.5,-451.5 655.5,-451.5 661.5,-457.5 661.5,-463.5 661.5,-463.5 661.5,-491.5 661.5,-491.5 661.5,-497.5 655.5,-503.5 649.5,-503.5 649.5,-503.5 497.5,-503.5 497.5,-503.5 491.5,-503.5 485.5,-497.5 485.5,-491.5 485.5,-491.5 485.5,-463.5 485.5,-463.5 485.5,-457.5 491.5,-451.5 497.5,-451.5"/>
<text text-anchor="middle" x="527" y="-475" font-family="Arial" font-size="10.00">todo_templates</text>
<polyline fill="none" stroke="#2563eb" points="568.5,-451.5 568.5,-503.5 "/>
<text text-anchor="start" x="576.5" y="-491.5" font-family="Arial" font-size="10.00">id PK</text>
<text text-anchor="start" x="576.5" y="-480.5" font-family="Arial" font-size="10.00">event_type_id FK</text>
<text text-anchor="start" x="576.5" y="-469.5" font-family="Arial" font-size="10.00">task</text>
<text text-anchor="start" x="576.5" y="-458.5" font-family="Arial" font-size="10.00">is_active</text>
</g>
<!-- event_types&#45;&gt;todo_templates -->
<g id="edge26" class="edge">
<title>event_types&#45;&gt;todo_templates</title>
<path fill="none" stroke="#334155" d="M351.17,-519.73C390.48,-512.23 437.66,-503.23 478.34,-495.46"/>
<polygon fill="#334155" stroke="#334155" points="478.92,-497.85 485.33,-494.13 478,-493.04 478.92,-497.85"/>
</g>
<!-- invitation_templates -->
<g id="node15" class="node">
<title>invitation_templates</title>
<path fill="#f8fbff" stroke="#2563eb" d="M487,-536.5C487,-536.5 660,-536.5 660,-536.5 666,-536.5 672,-542.5 672,-548.5 672,-548.5 672,-576.5 672,-576.5 672,-582.5 666,-588.5 660,-588.5 660,-588.5 487,-588.5 487,-588.5 481,-588.5 475,-582.5 475,-576.5 475,-576.5 475,-548.5 475,-548.5 475,-542.5 481,-536.5 487,-536.5"/>
<text text-anchor="middle" x="527" y="-560" font-family="Arial" font-size="10.00">invitation_templates</text>
<polyline fill="none" stroke="#2563eb" points="579,-536.5 579,-588.5 "/>
<text text-anchor="start" x="587" y="-576.5" font-family="Arial" font-size="10.00">id PK</text>
<text text-anchor="start" x="587" y="-565.5" font-family="Arial" font-size="10.00">event_type_id FK</text>
<text text-anchor="start" x="587" y="-554.5" font-family="Arial" font-size="10.00">title/body</text>
<text text-anchor="start" x="587" y="-543.5" font-family="Arial" font-size="10.00">theme</text>
</g>
<!-- event_types&#45;&gt;invitation_templates -->
<g id="edge27" class="edge">
<title>event_types&#45;&gt;invitation_templates</title>
<path fill="none" stroke="#334155" d="M351.17,-542.84C387.09,-546.03 429.58,-549.81 467.68,-553.19"/>
<polygon fill="#334155" stroke="#334155" points="467.55,-555.64 474.74,-553.82 467.98,-550.76 467.55,-555.64"/>
</g>
<!-- services&#45;&gt;venue_services -->
<g id="edge7" class="edge">
<title>services&#45;&gt;venue_services</title>
<path fill="none" stroke="#334155" d="M346.39,-1115.18C388.89,-1107.91 441.62,-1098.89 485.47,-1091.39"/>
<polygon fill="#334155" stroke="#334155" points="485.94,-1093.79 492.43,-1090.2 485.11,-1088.96 485.94,-1093.79"/>
</g>
<!-- booking_services -->
<g id="node9" class="node">
<title>booking_services</title>
<path fill="#f8fbff" stroke="#2563eb" d="M743,-907.5C743,-907.5 910,-907.5 910,-907.5 916,-907.5 922,-913.5 922,-919.5 922,-919.5 922,-969.5 922,-969.5 922,-975.5 916,-981.5 910,-981.5 910,-981.5 743,-981.5 743,-981.5 737,-981.5 731,-975.5 731,-969.5 731,-969.5 731,-919.5 731,-919.5 731,-913.5 737,-907.5 743,-907.5"/>
<text text-anchor="middle" x="777" y="-942" font-family="Arial" font-size="10.00">booking_services</text>
<polyline fill="none" stroke="#2563eb" points="823,-907.5 823,-981.5 "/>
<text text-anchor="start" x="831" y="-969.5" font-family="Arial" font-size="10.00">id PK</text>
<text text-anchor="start" x="831" y="-958.5" font-family="Arial" font-size="10.00">booking_id FK</text>
<text text-anchor="start" x="831" y="-947.5" font-family="Arial" font-size="10.00">service_id FK</text>
<text text-anchor="start" x="831" y="-936.5" font-family="Arial" font-size="10.00">service_name</text>
<text text-anchor="start" x="831" y="-925.5" font-family="Arial" font-size="10.00">service_type</text>
<text text-anchor="start" x="831" y="-914.5" font-family="Arial" font-size="10.00">total_usd/total_syp</text>
</g>
<!-- services&#45;&gt;booking_services -->
<g id="edge13" class="edge">
<title>services&#45;&gt;booking_services</title>
<path fill="none" stroke="#334155" d="M346.16,-1145.09C430.84,-1159.14 568.13,-1169.88 672,-1119.5 708.3,-1101.89 704.46,-1080.89 731,-1050.5 749.38,-1029.45 770.01,-1006.26 787.29,-986.95"/>
<polygon fill="#334155" stroke="#334155" points="789.23,-988.46 792.07,-981.62 785.58,-985.2 789.23,-988.46"/>
</g>
<!-- services&#45;&gt;reviews -->
<g id="edge21" class="edge">
<title>services&#45;&gt;reviews</title>
<path fill="none" stroke="#334155" d="M328.03,-1160.06C344.42,-1167.24 362.51,-1173.83 380,-1177.5 520.06,-1206.92 563.4,-1213.14 702,-1177.5 720.47,-1172.75 739.14,-1164.59 756.18,-1155.54"/>
<polygon fill="#334155" stroke="#334155" points="757.4,-1157.66 762.38,-1152.17 755.06,-1153.36 757.4,-1157.66"/>
</g>
<!-- bookings&#45;&gt;booking_services -->
<g id="edge12" class="edge">
<title>bookings&#45;&gt;booking_services</title>
<path fill="none" stroke="#334155" d="M648.76,-729.04C656.64,-734.88 664.51,-740.78 672,-746.5 685.57,-756.86 690.28,-758.08 702,-770.5 740.34,-811.11 776.36,-864.25 799.49,-901.06"/>
<polygon fill="#334155" stroke="#334155" points="797.59,-902.64 803.37,-907.28 801.75,-900.05 797.59,-902.64"/>
</g>
<!-- bookings&#45;&gt;payment_proofs -->
<g id="edge14" class="edge">
<title>bookings&#45;&gt;payment_proofs</title>
<path fill="none" stroke="#334155" d="M651,-625.22C658.46,-618.98 665.61,-612.36 672,-605.5 731.06,-542.03 779.44,-452.44 805.24,-399.52"/>
<polygon fill="#334155" stroke="#334155" points="807.58,-400.3 808.42,-392.94 803.17,-398.17 807.58,-400.3"/>
</g>
<!-- bookings&#45;&gt;reviews -->
<g id="edge22" class="edge">
<title>bookings&#45;&gt;reviews</title>
<path fill="none" stroke="#334155" d="M651.05,-722.48C658.97,-729.75 666.21,-737.78 672,-746.5 735.58,-842.36 679.15,-895.82 731,-998.5 742.42,-1021.12 759.37,-1043.03 775.77,-1061.32"/>
<polygon fill="#334155" stroke="#334155" points="774.31,-1063.36 780.84,-1066.88 777.93,-1060.06 774.31,-1063.36"/>
</g>
<!-- bookings&#45;&gt;complaints -->
<g id="edge25" class="edge">
<title>bookings&#45;&gt;complaints</title>
<path fill="none" stroke="#334155" d="M651.17,-675.5C680.67,-675.5 714.43,-675.5 744.33,-675.5"/>
<polygon fill="#334155" stroke="#334155" points="744.45,-677.95 751.45,-675.5 744.45,-673.05 744.45,-677.95"/>
</g>
<!-- settings -->
<g id="node17" class="node">
<title>settings</title>
<path fill="#f8fbff" stroke="#2563eb" d="M12,-466C12,-466 80,-466 80,-466 86,-466 92,-472 92,-478 92,-478 92,-495 92,-495 92,-501 86,-507 80,-507 80,-507 12,-507 12,-507 6,-507 0,-501 0,-495 0,-495 0,-478 0,-478 0,-472 6,-466 12,-466"/>
<text text-anchor="middle" x="25.5" y="-484" font-family="Arial" font-size="10.00">settings</text>
<polyline fill="none" stroke="#2563eb" points="51,-466 51,-507 "/>
<text text-anchor="start" x="59" y="-495" font-family="Arial" font-size="10.00">id PK</text>
<text text-anchor="start" x="59" y="-484" font-family="Arial" font-size="10.00">key</text>
<text text-anchor="start" x="59" y="-473" font-family="Arial" font-size="10.00">value</text>
</g>
</g>
</svg>
